<!--
  - Infomaniak Mail - Android
  - Copyright (C) 2024 Infomaniak Network SA
  -
  - This program is free software: you can redistribute it and/or modify
  - it under the terms of the GNU General Public License as published by
  - the Free Software Foundation, either version 3 of the License, or
  - (at your option) any later version.
  -
  - This program is distributed in the hope that it will be useful,
  - but WITHOUT ANY WARRANTY; without even the implied warranty of
  - MERCHANTABILITY or FITNESS FOR A PARTICULAR PURPOSE.  See the
  - GNU General Public License for more details.
  -
  - You should have received a copy of the GNU General Public License
  - along with this program.  If not, see <http://www.gnu.org/licenses/>.
  -->
<svg width="176" height="64" viewBox="0 0 176 64" fill="none" xmlns="http://www.w3.org/2000/svg">
<path opacity="0.5" fill-rule="evenodd" clip-rule="evenodd" d="M21.1904 10.3263C21.1904 8.5471 22.9497 7.27556 24.6873 7.79879L54.4118 16.7491C55.5456 17.0905 56.3193 18.1157 56.3193 19.2766V44.1539C56.3193 45.9331 54.5601 47.2046 52.8224 46.6814L23.098 37.7311C21.9641 37.3896 21.1904 36.3645 21.1904 35.2036V10.3263Z" fill="#FF9ABF"/>
<path opacity="0.8" fill-rule="evenodd" clip-rule="evenodd" d="M14.4355 14.5574C14.4355 12.7782 16.1948 11.5066 17.9325 12.0299L47.6569 20.9802C48.7908 21.3216 49.5645 22.3468 49.5645 23.5077V48.385C49.5645 50.1642 47.8052 51.4357 46.0676 50.9125L16.3431 41.9621C15.2093 41.6207 14.4355 40.5956 14.4355 39.4346V14.5574Z" fill="#F789B2"/>
<path fill-rule="evenodd" clip-rule="evenodd" d="M7.67969 19.8463C7.67969 18.0671 9.43892 16.7956 11.1766 17.3188L40.9011 26.2692C42.0349 26.6106 42.8086 27.6357 42.8086 28.7966V53.6739C42.8086 55.4531 41.0494 56.7246 39.3117 56.2014L9.58723 47.2511C8.45339 46.9097 7.67969 45.8845 7.67969 44.7236V19.8463Z" fill="#FF5B97"/>
<mask id="mask0_1574_9577" style="mask-type:luminance" maskUnits="userSpaceOnUse" x="7" y="17" width="36" height="40">
<path fill-rule="evenodd" clip-rule="evenodd" d="M7.67969 19.8463C7.67969 18.0671 9.43892 16.7956 11.1766 17.3188L40.9011 26.2692C42.0349 26.6106 42.8086 27.6357 42.8086 28.7966V53.6739C42.8086 55.4531 41.0494 56.7246 39.3117 56.2014L9.58723 47.2511C8.45339 46.9097 7.67969 45.8845 7.67969 44.7236V19.8463Z" fill="white"/>
</mask>
<g mask="url(#mask0_1574_9577)">
<g style="mix-blend-mode:multiply">
<path fill-rule="evenodd" clip-rule="evenodd" d="M7.67969 15.36L42.8086 25.9377L25.1456 41.3373C23.8269 42.487 21.7541 42.11 20.9456 40.5734L7.67969 15.36Z" fill="#F2357A"/>
</g>
</g>
<path d="M74.5596 10.1962H77.7744V12.3698H74.5596V10.1962ZM74.5596 13.3663H77.7744V21.6998H74.5596V13.3663ZM79.6171 13.3663H82.6108V14.7239C83.0584 14.1693 83.5113 13.7731 83.9694 13.535C84.4275 13.297 84.9857 13.178 85.644 13.178C86.5339 13.178 87.2303 13.4409 87.7332 13.9666C88.2361 14.4924 88.4876 15.3045 88.4876 16.4031V21.6998H85.2569V17.1172C85.2569 16.594 85.1595 16.2239 84.9647 16.0068C84.7698 15.7897 84.496 15.6812 84.1432 15.6812C83.7535 15.6812 83.4375 15.8277 83.1953 16.1206C82.9531 16.4136 82.832 16.9393 82.832 17.6979V21.6998H79.6171V13.3663ZM93.7742 13.3663H95.3066V15.7047H93.7742V21.6998H90.5514V15.7047H89.3508V13.3663H90.5514V12.9897C90.5514 12.6496 90.5883 12.2756 90.662 11.8676C90.7357 11.4595 90.874 11.126 91.0767 10.8671C91.2795 10.6081 91.5638 10.3989 91.9298 10.2393C92.2958 10.0798 92.8316 10 93.5372 10L93.8154 10.0046C94.3587 10.0217 95.0848 10.0855 95.9938 10.1962L95.6383 12.1265C95.2539 12.0637 94.9432 12.0324 94.7062 12.0324C94.4166 12.0324 94.2086 12.0807 94.0822 12.1775C93.9559 12.2743 93.8663 12.4273 93.8137 12.6366C93.7873 12.7517 93.7742 12.9949 93.7742 13.3663ZM95.609 17.5566C95.609 16.2854 96.0408 15.2378 96.9044 14.4139C97.768 13.59 98.9344 13.178 100.404 13.178C102.083 13.178 103.353 13.6619 104.211 14.6297C104.901 15.4092 105.246 16.3691 105.246 17.5095C105.246 18.7912 104.818 19.8414 103.962 20.6601C103.106 21.4788 101.923 21.8881 100.412 21.8881C99.0634 21.8881 97.9734 21.5481 97.1414 20.868C96.1198 20.0258 95.609 18.922 95.609 17.5566ZM98.8317 17.5488C98.8317 18.2916 98.9831 18.8409 99.2859 19.1966C99.5887 19.5523 99.9692 19.7302 100.427 19.7302C100.891 19.7302 101.271 19.555 101.569 19.2045C101.866 18.854 102.015 18.2916 102.015 17.5174C102.015 16.7954 101.865 16.2579 101.565 15.9048C101.265 15.5517 100.893 15.3752 100.451 15.3752C99.9823 15.3752 99.5953 15.5543 99.2899 15.9127C98.9844 16.271 98.8317 16.8164 98.8317 17.5488ZM106.606 13.3663H109.608V14.5826C110.04 14.0752 110.476 13.7142 110.915 13.4997C111.355 13.2853 111.886 13.178 112.507 13.178C113.176 13.178 113.705 13.2957 114.095 13.5311C114.484 13.7665 114.803 14.117 115.05 14.5826C115.556 14.0386 116.017 13.6684 116.433 13.4723C116.849 13.2761 117.362 13.178 117.973 13.178C118.873 13.178 119.576 13.4435 120.082 13.9745C120.588 14.5055 120.84 15.3359 120.84 16.4659V21.6998H117.618V16.9524C117.618 16.5757 117.544 16.2959 117.396 16.1128C117.18 15.825 116.912 15.6812 116.591 15.6812C116.212 15.6812 115.906 15.8172 115.674 16.0892C115.443 16.3613 115.327 16.7981 115.327 17.3997V21.6998H112.104V17.1093C112.104 16.7431 112.083 16.4947 112.041 16.3639C111.972 16.1546 111.854 15.9859 111.685 15.8577C111.517 15.7296 111.319 15.6655 111.093 15.6655C110.724 15.6655 110.422 15.8041 110.185 16.0814C109.948 16.3586 109.829 16.8138 109.829 17.4467V21.6998H106.606V13.3663ZM125.479 16.0657L122.407 15.744C122.522 15.2104 122.69 14.7906 122.908 14.4845C123.127 14.1785 123.441 13.913 123.852 13.6881C124.147 13.5259 124.552 13.4003 125.068 13.3114C125.585 13.2225 126.143 13.178 126.743 13.178C127.707 13.178 128.481 13.2316 129.065 13.3389C129.65 13.4461 130.137 13.6698 130.527 14.0098C130.8 14.2452 131.016 14.5787 131.174 15.0103C131.332 15.4419 131.411 15.8538 131.411 16.2462V19.9264C131.411 20.3187 131.436 20.6261 131.486 20.8484C131.536 21.0707 131.646 21.3545 131.814 21.6998H128.797C128.676 21.4853 128.597 21.3218 128.56 21.2094C128.523 21.0969 128.486 20.9203 128.449 20.6797C128.028 21.0825 127.609 21.3702 127.193 21.5429C126.625 21.773 125.964 21.8881 125.211 21.8881C124.21 21.8881 123.45 21.6579 122.932 21.1976C122.413 20.7372 122.154 20.1696 122.154 19.4948C122.154 18.8618 122.341 18.3413 122.715 17.9333C123.062 17.5544 123.681 17.2657 124.573 17.0672L126.275 16.716C126.666 16.6316 126.951 16.5653 127.13 16.5169C127.488 16.4201 127.867 16.2932 128.267 16.1363C128.267 15.744 128.186 15.4693 128.023 15.3124C127.859 15.1554 127.572 15.077 127.162 15.077C126.635 15.077 126.24 15.1607 125.977 15.3281C125.771 15.4589 125.606 15.7047 125.479 16.0657ZM128.267 17.7449C127.936 17.8626 127.594 17.97 127.241 18.0671L126.885 18.1608C126.232 18.3335 125.819 18.5035 125.645 18.6709C125.466 18.8435 125.377 19.0397 125.377 19.2594C125.377 19.5105 125.465 19.7158 125.641 19.8754C125.818 20.0349 126.077 20.1147 126.419 20.1147C126.777 20.1147 127.11 20.0284 127.418 19.8558C127.726 19.6831 127.945 19.4726 128.074 19.2241C128.203 18.9756 128.267 18.6526 128.267 18.255V17.7449ZM133.128 13.3663H136.121V14.7239C136.569 14.1693 137.022 13.7731 137.48 13.535C137.938 13.297 138.496 13.178 139.154 13.178C140.044 13.178 140.741 13.4409 141.244 13.9666C141.747 14.4924 141.998 15.3045 141.998 16.4031V21.6998H138.767V17.1172C138.767 16.594 138.67 16.2239 138.475 16.0068C138.28 15.7897 138.006 15.6812 137.654 15.6812C137.264 15.6812 136.948 15.8277 136.706 16.1206C136.464 16.4136 136.342 16.9393 136.342 17.6979V21.6998H133.128V13.3663ZM143.825 10.1962H147.04V12.3698H143.825V10.1962ZM143.825 13.3663H147.04V21.6998H143.825V13.3663ZM151.813 16.0657L148.74 15.744C148.856 15.2104 149.023 14.7906 149.242 14.4845C149.46 14.1785 149.775 13.913 150.186 13.6881C150.481 13.5259 150.886 13.4003 151.402 13.3114C151.918 13.2225 152.476 13.178 153.077 13.178C154.04 13.178 154.815 13.2316 155.399 13.3389C155.984 13.4461 156.471 13.6698 156.86 14.0098C157.134 14.2452 157.35 14.5787 157.508 15.0103C157.666 15.4419 157.745 15.8538 157.745 16.2462V19.9264C157.745 20.3187 157.77 20.6261 157.82 20.8484C157.87 21.0707 157.979 21.3545 158.148 21.6998H155.13L155.023 21.5023C154.961 21.382 154.918 21.2843 154.894 21.2094C154.857 21.0969 154.82 20.9203 154.783 20.6797C154.362 21.0825 153.943 21.3702 153.527 21.5429C152.958 21.773 152.297 21.8881 151.544 21.8881C150.544 21.8881 149.784 21.6579 149.266 21.1976C148.747 20.7372 148.488 20.1696 148.488 19.4948C148.488 18.8618 148.674 18.3413 149.048 17.9333C149.396 17.5544 150.015 17.2657 150.907 17.0672L152.609 16.716C153 16.6316 153.285 16.5653 153.464 16.5169C153.822 16.4201 154.201 16.2932 154.601 16.1363C154.601 15.744 154.52 15.4693 154.356 15.3124C154.193 15.1554 153.906 15.077 153.495 15.077C152.969 15.077 152.574 15.1607 152.311 15.3281C152.105 15.4589 151.939 15.7047 151.813 16.0657ZM154.601 17.7449C154.27 17.8626 153.927 17.97 153.575 18.0671L153.219 18.1608C152.566 18.3335 152.153 18.5035 151.979 18.6709C151.8 18.8435 151.71 19.0397 151.71 19.2594C151.71 19.5105 151.798 19.7158 151.975 19.8754C152.151 20.0349 152.411 20.1147 152.753 20.1147C153.111 20.1147 153.444 20.0284 153.752 19.8558C154.06 19.6831 154.279 19.4726 154.408 19.2241C154.537 18.9756 154.601 18.6526 154.601 18.255V17.7449ZM159.461 10.1962H162.747V16.1285L165.149 13.3663H169.106L166.096 16.2854L169.28 21.6998H165.654L163.956 18.357L162.747 19.534V21.6998H159.461V10.1962Z" fill="#0098FF"/>
<path d="M83.7043 53.1282L78.0518 35.0955V53.1282H74.2426V30.8562H80.2944L85.7011 48.6123L91.0771 30.8562H97.129V53.1282H93.3197V35.0955L87.6672 53.1282H83.7043ZM100.435 48.5816C100.435 44.4651 105.504 43.4206 111.556 42.8062V42.499C111.556 39.6728 109.928 38.8126 108.115 38.8126C106.272 38.8126 104.89 39.7957 104.797 41.7925H101.203C101.449 38.4133 104.245 36.1093 108.238 36.1093C112.201 36.1093 115.304 37.9218 115.212 43.2056C115.212 44.035 115.15 45.9704 115.15 47.4757C115.15 49.5647 115.334 51.7458 115.642 53.1282H112.293C112.17 52.4216 112.047 52.0223 111.986 50.8856C110.941 52.6674 108.975 53.5275 106.549 53.5275C102.954 53.5275 100.435 51.5922 100.435 48.5816ZM111.648 45.356C106.426 45.8475 104.306 46.5848 104.306 48.4894C104.306 49.9333 105.504 50.7935 107.347 50.7935C110.051 50.7935 111.648 49.4111 111.648 46.6155V45.356ZM122.564 30.8562V34.5426H118.908V30.8562H122.564ZM122.564 36.6008V53.1282H118.908V36.6008H122.564ZM130.334 53.1282H126.678V30.8562H130.334V53.1282Z" fill="#333333"/>
</svg>
