<svg width="24" height="24" fill="none" xmlns="http://www.w3.org/2000/svg"><g clip-path="url(#a)"><path opacity=".5" fill-rule="evenodd" clip-rule="evenodd" d="M6.667 1.306c0-.878.868-1.506 1.725-1.247l14.666 4.416c.56.168.942.674.942 1.247v12.274c0 .878-.868 1.506-1.726 1.248L7.608 14.827a1.308 1.308 0 0 1-.941-1.247V1.306Z" fill="#FF9ABF"/><path opacity=".8" fill-rule="evenodd" clip-rule="evenodd" d="M3.333 3.394c0-.878.868-1.506 1.726-1.248l14.666 4.417c.56.168.941.674.941 1.247v12.274c0 .878-.868 1.506-1.725 1.247L4.274 16.915a1.308 1.308 0 0 1-.94-1.247V3.394Z" fill="#F789B2"/><path fill-rule="evenodd" clip-rule="evenodd" d="M0 6.004c0-.878.868-1.505 1.725-1.247l14.667 4.416c.56.168.94.674.94 1.247v12.275c0 .878-.867 1.505-1.725 1.247L.941 19.526A1.308 1.308 0 0 1 0 18.279V6.004Z" fill="#FF5B97"/><mask id="b" style="mask-type:luminance" maskUnits="userSpaceOnUse" x="-1" y="4" width="19" height="20"><path fill-rule="evenodd" clip-rule="evenodd" d="M0 6.002c0-.878.868-1.505 1.725-1.247L16.392 9.17c.56.169.94.674.94 1.247v12.275c0 .878-.867 1.505-1.725 1.247L.941 19.524A1.308 1.308 0 0 1 0 18.277V6.002Z" fill="#fff"/></mask><g mask="url(#b)"><path fill-rule="evenodd" clip-rule="evenodd" d="m0 3.788 17.333 5.22-8.715 7.598c-.65.567-1.674.38-2.073-.377L0 3.789Z" fill="#F2357A" style="mix-blend-mode:multiply"/></g></g><defs><clipPath id="a"><path fill="#fff" d="M0 0h24v24H0z"/></clipPath></defs></svg>